<svg xmlns:xlink="http://www.w3.org/1999/xlink" xmlns="http://www.w3.org/2000/svg" width="208" height="49" viewBox="0 0 208 49" fill="none">
<path d="M76.3412 13.8042C75.0817 13.1523 73.4964 12.8264 71.5865 12.8264H62.6172V36.4312H67.3373V27.6303H71.5865C73.542 27.6303 75.1494 27.2823 76.4088 26.5849C77.6669 25.8876 78.5949 24.983 79.1901 23.87C79.7853 22.7569 80.0836 21.5486 80.0836 20.245C80.0836 18.8281 79.7742 17.5645 79.1556 16.4515C78.5369 15.3384 77.6006 14.456 76.3412 13.8042ZM74.3346 22.8412C73.716 23.4944 72.6996 23.8189 71.2841 23.8189H67.3387V16.6696H71.2841C72.6996 16.6696 73.7173 16.9845 74.3346 17.6142C74.9533 18.2439 75.2626 19.1209 75.2626 20.245C75.2626 21.3235 74.9533 22.1893 74.3346 22.8412Z" fill="#F7F7FF"/>
<path d="M87.1997 19.4343H82.4782V36.4298H87.1997V19.4343Z" fill="#F7F7FF"/>
<path d="M84.8396 11.9827C83.9848 11.9827 83.2888 12.2299 82.7488 12.7242C82.2089 13.22 81.9396 13.8483 81.9396 14.612C81.9396 15.3536 82.2089 15.9778 82.7488 16.4832C83.2888 16.9886 83.9848 17.2414 84.8396 17.2414C85.6944 17.2414 86.3904 16.9886 86.929 16.4832C87.4689 15.9778 87.7382 15.3536 87.7382 14.612C87.7382 13.8483 87.4689 13.2186 86.929 12.7242C86.389 12.2299 85.693 11.9827 84.8396 11.9827Z" fill="#F7F7FF"/>
<path d="M105.02 20.2104C103.795 19.4233 102.396 19.0297 100.821 19.0297C99.9224 19.0297 99.1298 19.154 98.4434 19.4012C97.7571 19.6484 97.1674 19.9798 96.673 20.3955C96.1787 20.8125 95.763 21.2558 95.426 21.7281L94.8875 19.4357H90.7059V43.8497H95.4274V34.2727C95.9895 35.082 96.7255 35.7117 97.6356 36.1605C98.5456 36.6107 99.6186 36.8358 100.856 36.8358C102.385 36.8358 103.756 36.4533 104.97 35.6896C106.184 34.9259 107.15 33.875 107.87 32.5369C108.589 31.2001 108.948 29.6755 108.948 27.9673C108.948 26.259 108.599 24.7358 107.903 23.3977C107.206 22.0595 106.244 20.9976 105.02 20.2118V20.2104ZM103.586 30.4268C103.204 31.1463 102.676 31.7083 102.001 32.1129C101.326 32.5175 100.562 32.7192 99.7084 32.7192C98.8315 32.7192 98.0609 32.5175 97.398 32.1129C96.7352 31.7083 96.2118 31.1463 95.8293 30.4268C95.4467 29.7073 95.2562 28.876 95.2562 27.9314C95.2562 27.0103 95.4467 26.19 95.8293 25.4705C96.2104 24.751 96.7338 24.1835 97.398 23.7678C98.0595 23.3521 98.8301 23.1436 99.7084 23.1436C100.562 23.1436 101.327 23.3521 102.001 23.7678C102.675 24.1848 103.204 24.751 103.586 25.4705C103.969 26.19 104.159 27.0213 104.159 27.9659C104.159 28.8884 103.969 29.7087 103.586 30.4268Z" fill="#F7F7FF"/>
<path d="M124.544 20.1428C123.273 19.4012 121.795 19.0297 120.109 19.0297C118.356 19.0297 116.821 19.4233 115.507 20.2104C114.192 20.9976 113.169 22.0706 112.438 23.4308C111.708 24.7911 111.342 26.3474 111.342 28.1012C111.342 29.833 111.713 31.3548 112.455 32.6708C113.196 33.9855 114.225 35.0088 115.54 35.7393C116.854 36.4699 118.367 36.8358 120.075 36.8358C121.423 36.8358 122.638 36.5831 123.716 36.0777C124.795 35.5722 125.711 34.8914 126.465 34.038C127.217 33.1832 127.752 32.2289 128.066 31.1711H123.244C122.973 31.7111 122.574 32.1488 122.047 32.4872C121.518 32.8241 120.85 32.9926 120.04 32.9926C119.231 32.9926 118.523 32.8131 117.916 32.4526C117.309 32.0936 116.838 31.5813 116.499 30.9184C116.232 30.3909 116.1 29.7763 116.045 29.1135H128.47C128.514 28.7986 128.541 28.5072 128.554 28.2366C128.565 27.9673 128.57 27.7201 128.57 27.495C128.57 25.8544 128.217 24.4044 127.509 23.145C126.8 21.8869 125.811 20.8857 124.541 20.1441L124.544 20.1428ZM116.121 26.2466C116.211 25.7688 116.343 25.3352 116.534 24.9651C116.893 24.2691 117.387 23.7402 118.017 23.3811C118.646 23.0221 119.343 22.8412 120.108 22.8412C121.119 22.8412 121.968 23.1505 122.654 23.7692C123.339 24.3878 123.716 25.2136 123.784 26.248L116.121 26.2466Z" fill="#F7F7FF"/>
<path d="M137.442 20.6827C136.836 21.2006 136.318 21.8289 135.891 22.5719L135.453 19.4357H131.272V36.4312H135.993V28.6757C135.993 27.7767 136.099 27.0296 136.314 26.433C136.526 25.8378 136.841 25.3656 137.258 25.0162C137.674 24.6682 138.168 24.4155 138.741 24.258C139.314 24.1006 139.939 24.0219 140.612 24.0219H142.196V19.0311C141.252 19.0311 140.376 19.1775 139.567 19.4702C138.758 19.763 138.049 20.1676 137.442 20.6841V20.6827Z" fill="#F7F7FF"/>
<path d="M155.212 26.9716C154.223 26.6236 153.066 26.3143 151.739 26.045C150.997 25.8876 150.373 25.7246 149.868 25.5561C149.362 25.3876 148.974 25.1846 148.705 24.9485C148.434 24.7124 148.3 24.4486 148.3 24.1558C148.3 23.7056 148.507 23.3466 148.924 23.0773C149.34 22.8066 149.93 22.6727 150.695 22.6727C151.436 22.6727 152.032 22.8066 152.482 23.0773C152.931 23.3466 153.212 23.7291 153.326 24.2235H157.776C157.551 22.6271 156.837 21.3635 155.636 20.43C154.433 19.4979 152.797 19.0297 150.729 19.0297C149.268 19.0297 148.016 19.2659 146.969 19.7381C145.924 20.2104 145.125 20.8512 144.574 21.6604C144.025 22.4697 143.749 23.3811 143.749 24.392C143.749 25.2233 143.928 25.9207 144.289 26.4827C144.648 27.0448 145.136 27.5116 145.755 27.8817C146.372 28.2531 147.07 28.5514 147.846 28.7751C148.622 29.0002 149.415 29.2032 150.224 29.3814C150.943 29.5167 151.561 29.6631 152.079 29.8205C152.595 29.978 152.989 30.181 153.258 30.4268C153.529 30.674 153.663 31.022 153.663 31.4722C153.663 31.787 153.567 32.0798 153.377 32.3491C153.185 32.6197 152.904 32.8379 152.533 33.0078C152.161 33.1763 151.684 33.2605 151.099 33.2605C150.493 33.2605 149.97 33.1597 149.532 32.9567C149.094 32.7551 148.745 32.4899 148.487 32.164C148.228 31.8381 148.054 31.4722 147.965 31.0675H143.245C143.356 32.1695 143.739 33.1528 144.391 34.0187C145.043 34.8845 145.942 35.5695 147.088 36.0763C148.234 36.5817 149.594 36.8344 151.169 36.8344C152.652 36.8344 153.933 36.5983 155.012 36.126C156.092 35.6537 156.928 34.9908 157.524 34.136C158.119 33.2812 158.406 32.3145 158.384 31.236C158.384 30.0222 158.102 29.0955 157.542 28.4548C156.98 27.814 156.203 27.3196 155.215 26.9716H155.212Z" fill="#F7F7FF"/>
<path d="M175.529 20.2104C174.304 19.4233 172.903 19.0297 171.331 19.0297C170.432 19.0297 169.639 19.154 168.954 19.4012C168.268 19.6484 167.678 19.9798 167.184 20.3955C166.689 20.8125 166.273 21.2558 165.936 21.7281L165.397 19.4357H161.215V43.8497H165.936V34.2727C166.497 35.082 167.235 35.7117 168.145 36.1605C169.055 36.6107 170.128 36.8358 171.365 36.8358C172.894 36.8358 174.265 36.4533 175.479 35.6896C176.693 34.9259 177.659 33.875 178.379 32.5369C179.098 31.2001 179.457 29.6755 179.457 27.9673C179.457 26.259 179.109 24.7358 178.412 23.3977C177.715 22.0595 176.755 20.9976 175.53 20.2118L175.529 20.2104ZM174.095 30.4268C173.713 31.1463 173.185 31.7083 172.511 32.1129C171.836 32.5175 171.072 32.7192 170.217 32.7192C169.341 32.7192 168.57 32.5175 167.907 32.1129C167.244 31.7083 166.721 31.1463 166.34 30.4268C165.957 29.7073 165.765 28.876 165.765 27.9314C165.765 27.0103 165.956 26.19 166.34 25.4705C166.721 24.751 167.244 24.1835 167.907 23.7678C168.57 23.3521 169.341 23.1436 170.217 23.1436C171.071 23.1436 171.836 23.3521 172.511 23.7678C173.185 24.1848 173.713 24.751 174.095 25.4705C174.478 26.19 174.67 27.0213 174.67 27.9659C174.67 28.8884 174.478 29.7087 174.095 30.4268Z" fill="#F7F7FF"/>
<path d="M187.212 19.4343H182.49V36.4298H187.212V19.4343Z" fill="#F7F7FF"/>
<path d="M184.852 11.9827C183.997 11.9827 183.301 12.2299 182.761 12.7242C182.221 13.22 181.951 13.8483 181.951 14.612C181.951 15.3536 182.221 15.9778 182.761 16.4832C183.301 16.9886 183.997 17.2414 184.852 17.2414C185.706 17.2414 186.402 16.9886 186.942 16.4832C187.482 15.9778 187.752 15.3536 187.752 14.612C187.752 13.8483 187.482 13.2186 186.942 12.7242C186.402 12.2299 185.705 11.9827 184.852 11.9827Z" fill="#F7F7FF"/>
<path d="M206.618 22.5028C206.113 21.3787 205.375 20.5184 204.41 19.9232C203.443 19.328 202.263 19.0297 200.869 19.0297C199.521 19.0297 198.368 19.3225 197.413 19.9066C196.457 20.4921 195.721 21.2558 195.205 22.2004L194.868 19.4357H190.719V36.4312H195.439V27.3597C195.439 26.4386 195.602 25.6569 195.928 25.0162C196.254 24.3754 196.708 23.881 197.294 23.533C197.878 23.185 198.53 23.0096 199.249 23.0096C200.441 23.0096 201.311 23.3632 201.862 24.0716C202.412 24.78 202.689 25.7867 202.689 27.0904V36.4312H207.376V26.6526C207.376 25.012 207.124 23.6297 206.618 22.5056V22.5028Z" fill="#F7F7FF"/>
<path d="M52.9888 24.3864C52.9888 28.3732 49.7491 31.6115 45.7636 31.6115V26.7948C47.0949 26.7948 48.172 25.7162 48.172 24.3864C48.172 23.0565 47.0949 21.978 45.7636 21.978C41.7768 21.978 38.5385 18.7382 38.5385 14.7528C38.5385 10.7673 41.7782 7.52759 45.7636 7.52759V12.3444C44.4324 12.3444 43.3553 13.4229 43.3553 14.7528C43.3553 16.0826 44.4324 17.1612 45.7636 17.1612C49.7505 17.1612 52.9888 20.4009 52.9888 24.3864Z" fill="url(#paint0_linear_2328_135)"/>
<path d="M21.6769 29.2045C23.0071 29.2045 24.0853 28.1263 24.0853 26.7961C24.0853 25.466 23.0071 24.3877 21.6769 24.3877C20.3468 24.3877 19.2685 25.466 19.2685 26.7961C19.2685 28.1263 20.3468 29.2045 21.6769 29.2045Z" fill="url(#paint1_linear_2328_135)"/>
<path d="M53.4045 36.4297V38.8381C53.4045 41.4992 51.2488 43.6549 48.5877 43.6549H29.4338L28.4699 48.4717H7.22518V29.7624C5.74341 28.4436 4.81679 26.5227 4.81679 24.385C4.81679 20.3981 8.05652 17.1598 12.042 17.1598V21.9766C10.7107 21.9766 9.63358 23.0551 9.63358 24.385C9.63358 25.7148 10.7107 26.7934 12.042 26.7934V43.6535H24.519L26.9273 31.6102H30.377L28.9021 27.1842V21.9752H19.2672V17.1584H28.9021C28.9021 10.5174 23.5012 5.11505 16.8588 5.11505C10.2163 5.11505 4.81679 10.5201 4.81679 17.1612H0C0 7.86455 7.56352 0.301025 16.8601 0.301025C26.1568 0.301025 33.7203 7.86455 33.7203 17.1612V26.4039L36.1287 36.4297H30.8783L30.3963 38.8381H41.3611C41.0905 38.0855 40.9455 37.2721 40.9455 36.4297H53.4045Z" fill="url(#paint2_linear_2328_135)"/>
<defs>
<linearGradient id="paint0_linear_2328_135" x1="26.7023" y1="5.6125" x2="26.7023" y2="79.5589" gradientUnits="userSpaceOnUse">
<stop stop-color="#4DFFFF"/>
<stop offset="1" stop-color="#884DFF"/>
</linearGradient>
<linearGradient id="paint1_linear_2328_135" x1="26.7022" y1="-231.741" x2="26.7022" y2="230.81" gradientUnits="userSpaceOnUse">
<stop stop-color="#4DFFFF"/>
<stop offset="1" stop-color="#884DFF"/>
</linearGradient>
<linearGradient id="paint2_linear_2328_135" x1="26.7023" y1="10.1832" x2="26.7023" y2="47.1543" gradientUnits="userSpaceOnUse">
<stop stop-color="#4DFFFF"/>
<stop offset="1" stop-color="#884DFF"/>
</linearGradient>
</defs>
</svg>