<svg width="16" height="15" viewBox="0 0 16 15" fill="none" xmlns="http://www.w3.org/2000/svg">
<path d="M15.8755 7.21597C15.8755 8.41043 14.9048 9.38064 13.7108 9.38064V7.93753C14.1096 7.93753 14.4324 7.6144 14.4324 7.21597C14.4324 6.81754 14.1096 6.49441 13.7108 6.49441C12.5163 6.49441 11.5461 5.52379 11.5461 4.32975C11.5461 3.13571 12.5168 2.16508 13.7108 2.16508V3.60819C13.312 3.60819 12.9892 3.93132 12.9892 4.32975C12.9892 4.72818 13.312 5.0513 13.7108 5.0513C14.9053 5.0513 15.8755 6.02193 15.8755 7.21597Z" fill="url(#paint0_linear_2332_108)"/>
<path d="M6.49441 8.6595C6.89292 8.6595 7.21597 8.33644 7.21597 7.93794C7.21597 7.53944 6.89292 7.21638 6.49441 7.21638C6.09591 7.21638 5.77286 7.53944 5.77286 7.93794C5.77286 8.33644 6.09591 8.6595 6.49441 8.6595Z" fill="url(#paint1_linear_2332_108)"/>
<path d="M16 10.8242V11.5457C16 12.343 15.3542 12.9888 14.5569 12.9888H8.81837L8.52958 14.4319H2.16467V8.82664C1.72073 8.43153 1.44311 7.85602 1.44311 7.21556C1.44311 6.0211 2.41374 5.05089 3.60778 5.05089V6.494C3.20894 6.494 2.88622 6.81713 2.88622 7.21556C2.88622 7.61398 3.20894 7.93711 3.60778 7.93711V12.9884H7.34588L8.06744 9.38022H9.10095L8.65908 8.0542V6.49359H5.77245V5.05048H8.65908C8.65908 3.06082 7.04096 1.44228 5.05089 1.44228C3.06082 1.44228 1.44311 3.06165 1.44311 5.0513H0C0 2.26603 2.26603 0 5.0513 0C7.83657 0 10.1026 2.26603 10.1026 5.0513V7.82044L10.8242 10.8242H9.25114L9.10674 11.5457H12.3918C12.3107 11.3202 12.2673 11.0765 12.2673 10.8242H16Z" fill="url(#paint2_linear_2332_108)"/>
<defs>
<linearGradient id="paint0_linear_2332_108" x1="8" y1="1.59132" x2="8" y2="23.7457" gradientUnits="userSpaceOnUse">
<stop stop-color="#4DFFFF"/>
<stop offset="1" stop-color="#884DFF"/>
</linearGradient>
<linearGradient id="paint1_linear_2332_108" x1="8" y1="-69.5199" x2="8" y2="69.0606" gradientUnits="userSpaceOnUse">
<stop stop-color="#4DFFFF"/>
<stop offset="1" stop-color="#884DFF"/>
</linearGradient>
<linearGradient id="paint2_linear_2332_108" x1="8" y1="2.9607" x2="8" y2="14.0372" gradientUnits="userSpaceOnUse">
<stop stop-color="#4DFFFF"/>
<stop offset="1" stop-color="#884DFF"/>
</linearGradient>
</defs>
</svg>
